<?xml version="1.0" encoding="utf-8"?>
<?xml-stylesheet type="text/xsl" href="rss1.xsl"?>
<rss version="2.0" xmlns:atom="http://www.w3.org/2005/Atom" xmlns:content="http://purl.org/rss/1.0/modules/content/" xmlns:dc="http://purl.org/dc/elements/1.1/" xmlns:media="http://search.yahoo.com/mrss/">
<channel>
 <title>Getty</title>
 <link>http://www.gettyimg.com/</link>
 <atom:link href="http://www.gettyimg.com/" rel="self" type="application/rss+xml" />

 
                <item>
                <title><![CDATA[【Albums (lossless)】FLAC - BARONESS - 2023 - STONE [Deluxe Edition] [24bits-48kHz]]]></title>
                <link><![CDATA[https://sharemania.us/threads/baroness-2023-stone-deluxe-edition-24bits-48khz.230524/]]></link>
                <description><![CDATA[<article>
<blockquote class="messageText SelectQuoteContainer ugc baseHtml">
<div style="text-align: center"><img src="https://static.qobuz.com/images/covers/ub/yq/cjlqzirydyqub_600.jpg" class="bbCodeImage LbImage" alt="[​IMG]" data-url="https://static.qobuz.com/images/covers/ub/yq/cjlqzirydyqub_600.jpg" style=""><br>
<br>
<b>Band</b>: Baroness<br>
<b>Album</b>: STONE [Deluxe Edition]<br>
<b>Date</b>: 15 September 2023<br>
<b>Genre</b>: Stoner Metal<br>
<b>Quality</b>: 24bits-48kHz<br>
<b>Country</b>: USA<br>
<b>Size</b>: 1,2GB<br>
<br>
<b>Tracklist</b>:<br>
<br>
1-Embers 01:00<br>
2-Last Word 06:17<br>
3-Beneath the Rose 05:34<br>
4-Choir 04:05<br>
5-The Dirge 01:18<br>
6-Anodyne 03:19<br>
7-Shine 06:31<br>
8-Magnolia 07:48<br>
9-Under the Wheel 06:10<br>
10-Bloom 04:00<br>
11-The Birthing (Live at Mohawk, Austin, TX, April 20, 2022)05:29<br>
12-A Horse Called Golgotha (Live at Cobra Lounge, Chicago, IL, April 10, 2022) 07:12<br>
13-Eula (Live at Cobra Lounge, Chicago, IL, April 10, 2022) 06:42<br>
14-Green Theme (Live at The State Room, Salt Lake City, UT, March 31, 2022) 04:00<br>
15- Desperation Burns (Live at Mohawk, Austin, TX, April 20, 2022) 04:43<br>
16-I'd Do Anything (Live at The State Room, Salt Lake City, UT, March 31, 2022) 03:56<br>
<br>
<b><span style="font-size: 18px"><span style="color: #006633">Filedot</span></span></b>:<br>
<br>
<div class="bbCodeBlock bbCodeVfcHH HiddenContent">
<div class="attribution type">Hidden Content:</div>
<blockquote>You must either reply or click 'Like' to see the hidden information contained here.</blockquote>
</div></div>
<div class="messageTextEndMarker">&nbsp;</div>
</blockquote>
</article>]]></description>
                <author><![CDATA[XRB80]]></author>
                </item>

                
                <item>
                <title><![CDATA[【General Music Discussion】Taylor Swift - She needs to release the audio from the Eras tour :]]></title>
                <link><![CDATA[https://sharemania.us/threads/taylor-swift-she-needs-to-release-the-audio-from-the-eras-tour.230523/]]></link>
                <description><![CDATA[<article>
<blockquote class="messageText SelectQuoteContainer ugc baseHtml">
I wouldn't say I'm the biggest Taylor Swift fan - I Love the 1989 album and can listen to most of the others :<br>
But, I went and saw the eras tour movie twice ( IT is amazing ).<br>
Then, I went back and listened to some of the songs that really stood out to me in the film &amp; they sound so laid back on CD compared to the power of them Live in Concert.<br>
Her Voice even seems more powerful etc Live in concert compared to her CD's.<br>
Just My Opinion :<br>
So, Hopefully the audio gets released as well as the Movie :
<div class="messageTextEndMarker">&nbsp;</div>
</blockquote>
</article>]]></description>
                <author><![CDATA[SmartBeens]]></author>
                </item>

                
                <item>
                <title><![CDATA[【Requests】[REQ AUD] - Ava Max - Wild Thing (Instrumental)]]></title>
                <link><![CDATA[https://sharemania.us/threads/ava-max-wild-thing-instrumental.230520/]]></link>
                <description><![CDATA[<article>
<blockquote class="messageText SelectQuoteContainer ugc baseHtml">
Does anyone have this in the best quality? (lossless, 320kpbs or M4A)
<div class="messageTextEndMarker">&nbsp;</div>
</blockquote>
</article>]]></description>
                <author><![CDATA[OnlyJay13]]></author>
                </item>

                
                <item>
                <title><![CDATA[【PRORES HD】Kelly Clarkson - Piece By Piece |ProRes 1080|]]></title>
                <link><![CDATA[https://sharemania.us/threads/kelly-clarkson-piece-by-piece-prores-1080.230519/]]></link>
                <description><![CDATA[<article>
<blockquote class="messageText SelectQuoteContainer ugc baseHtml">
<div style="text-align: center"><img src="https://i.imgur.com/L9Aqcan.gif" class="bbCodeImage LbImage" alt="[​IMG]" data-url="https://i.imgur.com/L9Aqcan.gif" style=""><br>
​</div>
<div class="ToggleTriggerAnchor bbCodeSpoilerContainer">
<button type="button" class="button bbCodeSpoilerButton ToggleTrigger Tooltip JsOnly" data-target="> .SpoilerTarget"><span>Spoiler: <span class="SpoilerTitle">ProRes</span></span></button>
<div class="SpoilerTarget bbCodeSpoilerText">
<div class="bbCodeBlock bbCodeCode">
<div class="type">Code:</div>
<pre>Format                                   : MPEG-4
Format profile                           : QuickTime
Codec ID                                 : qt   0000.00 (qt  )
File size                                : 6.65 GiB
Duration                                 : 3 min 47 s
Overall bit rate mode                    : Variable
Overall bit rate                         : 251 Mb/s
Encoded date                             : UTC 2023-03-28 17:08:53
Tagged date                              : UTC 2023-03-28 17:08:58
Writing library                          : Apple QuickTime
TIM                                      : 00:59:50:00
TSC                                      : 24000
TSZ                                      : 1001

Video
ID                                       : 1
Format                                   : ProRes
Format version                           : Version 1
Format profile                           : 4444
Codec ID                                 : ap4h
Duration                                 : 3 min 47 s
Source duration                          : 3 min 47 s
Bit rate mode                            : Variable
Bit rate                                 : 249 Mb/s
Width                                    : 2 048 pixels
Height                                   : 1 152 pixels
Display aspect ratio                     : 16:9
Frame rate mode                          : Constant
Frame rate                               : 23.976 (24000/1001) FPS
Color space                              : YUVA
Chroma subsampling                       : 4:4:4
Scan type                                : Progressive
Bits/(Pixel*Frame)                       : 4.409
Stream size                              : 6.61 GiB (99%)
Source stream size                       : 6.61 GiB (99%)
Title                                    : Core Media Video
Writing library                          : Apple
Language                                 : English
Encoded date                             : UTC 2023-03-28 17:08:53
Tagged date                              : UTC 2023-03-28 17:08:58
Color primaries                          : BT.709
Transfer characteristics                 : BT.709
Matrix coefficients                      : BT.709

Audio
ID                                       : 2
Format                                   : PCM
Format settings                          : Little / Signed
Codec ID                                 : lpcm
Duration                                 : 3 min 47 s
Bit rate mode                            : Constant
Bit rate                                 : 1 536 kb/s
Channel(s)                               : 2 channels
Channel layout                           : L R
Sampling rate                            : 48.0 kHz
Bit depth                                : 16 bits
Stream size                              : 41.7 MiB (1%)
Title                                    : Core Media Audio
Language                                 : English
Encoded date                             : UTC 2023-03-28 17:08:53
Tagged date                              : UTC 2023-03-28 17:08:58

Other
ID                                       : 3
Type                                     : Time code
Format                                   : QuickTime TC
Duration                                 : 3 min 47 s
Frame rate                               : 23.976 (24000/1001) FPS
Time code of first frame                 : 01:00:00:00
Time code, striped                       : Yes
Title                                    : Core Media Time Code
Language                                 : English
Encoded date                             : UTC 2023-03-28 17:08:53
Tagged date                              : UTC 2023-03-28 17:08:58</pre>
</div><div style="text-align: center">​</div></div>
</div><div style="text-align: center"><br>
<div class="bbCodeBlock bbCodeVfcHH HiddenContent">
<div class="attribution type">Hidden Content:</div>
<blockquote>You must reply before you can see the hidden data contained here.</blockquote>
</div></div>
<div class="messageTextEndMarker">&nbsp;</div>
</blockquote>
</article>]]></description>
                <author><![CDATA[fstambuk]]></author>
                </item>

                
                <item>
                <title><![CDATA[【Singles (lossless)】PACK - Lil Durk – All My Life (Remixes) [Clean Version] [WEB FLAC 16-Bit/44.1 kHz &amp; 24-Bit/44.1 kHz + Qobuz Hi-Fi &amp; Hi-Res Audio]]]></title>
                <link><![CDATA[https://sharemania.us/threads/lil-durk-%E2%80%93-all-my-life-remixes-clean-version-web-flac-16-bit-44-1-khz-24-bit-44-1-khz-qobuz-hi-fi-hi-res-audio.230521/]]></link>
                <description><![CDATA[<article>
<blockquote class="messageText SelectQuoteContainer ugc baseHtml">
<b><img src="https://i.imgur.com/78EnTUz.jpg" class="bbCodeImage LbImage" alt="[​IMG]" data-url="https://i.imgur.com/78EnTUz.jpg" style=""><br>
<img src="https://i.imgur.com/JnvMsxw.png" class="bbCodeImage LbImage" alt="[​IMG]" data-url="https://i.imgur.com/JnvMsxw.png" style=""></b><br>
<span style="font-family: 'Book Antiqua'"><span style="font-size: 15px"><b>Artist</b>: Lil Durk<br>
<b>Album</b>: All My Life (Remixes) [Clean Version]<br>
<b>Release</b>: 2023/10/13<br>
<b>Type</b>: Digital Single<br>
<b>Format</b>: Free Lossless Audio Codec<br>
<b>Quality</b>: High Fidelity &amp; High Resolution, Lossless Audio - CD Quality &amp; Studio Quality<br>
<b>Sample Rate</b>: 16-Bit/44.100 kHz &amp; 24-Bit/44.100 kHz - Stereo<br>
<b>Source</b>: Ripped from <span style="color: #0059b3">Qobuz</span><br>
<br>
<b>TRACK LIST</b><br>
1. All My Life (Burna Boy Remix) [Clean Version] </span><span style="color: rgb(0, 89, 179)"><span style="font-size: 10px">- Lil Durk, Burna Boy, J. Cole</span></span><br>
<span style="font-size: 15px">2. All My Life (Stray Kids Remix) [Clean Version] </span><span style="color: rgb(0, 89, 179)"><span style="font-size: 10px">- Lil Durk, Stray Kids (스트레이 키즈)</span></span><br>
<span style="font-size: 15px">3. All My Life (feat. J. Cole) [Clean Version]<br>
<br>
<b>MORE INFORMATION</b><br>
1 Disc - 3 Tracks.<br>
Artwork - JPEG 3000x3000.<br>
SoX Spectrogram - <a href="https://imgur.com/a/FN49vts" target="_blank" class="externalLink" rel="nofollow">Preview 1</a>, <a href="https://imgur.com/a/AwaEX1k" target="_blank" class="externalLink" rel="nofollow">Preview 2</a>.<br>
Lossless Audio Checker - <a href="https://i.imgur.com/6L5wLht.png" target="_blank" class="externalLink" rel="nofollow">Preview 1</a>, <a href="https://i.imgur.com/IJQoRTP.png" target="_blank" class="externalLink" rel="nofollow">Preview 2</a>.<br>
<br>
<b>DOWNLOAD</b><br>
<br>
<b>Hi-Fi</b> 16-Bit/44.1 kHz<br>
<div class="bbCodeBlock bbCodeVfcHH HiddenContent">
<div class="attribution type">Hidden Content:</div>
<blockquote>You must reply before you can see the hidden data contained here.</blockquote>
</div><b>Hi-Res</b> 24-Bit/44.1 kHz<br>
<div class="bbCodeBlock bbCodeVfcHH HiddenContent">
<div class="attribution type">Hidden Content:</div>
<blockquote>You must reply before you can see the hidden data contained here.</blockquote>
</div></span></span>
<div class="messageTextEndMarker">&nbsp;</div>
</blockquote>
</article>]]></description>
                <author><![CDATA[samymskzs]]></author>
                </item>

                
                <item>
                <title><![CDATA[【MASTER &amp; MASTER RIP】MASTER - Cash Cash - Surrender (Master 1080)]]></title>
                <link><![CDATA[https://sharemania.us/threads/cash-cash-surrender-master-1080.230522/]]></link>
                <description><![CDATA[<article>
<blockquote class="messageText SelectQuoteContainer ugc baseHtml">
<div style="text-align: center"><img src="https://i.imgur.com/6xHw4Wz.gif" class="bbCodeImage LbImage" alt="[​IMG]" data-url="https://i.imgur.com/6xHw4Wz.gif" style=""><br>
​</div>
<div class="ToggleTriggerAnchor bbCodeSpoilerContainer">
<button type="button" class="button bbCodeSpoilerButton ToggleTrigger Tooltip JsOnly" data-target="> .SpoilerTarget"><span>Spoiler: <span class="SpoilerTitle">MASTER</span></span></button>
<div class="SpoilerTarget bbCodeSpoilerText">
<div class="bbCodeBlock bbCodeCode">
<div class="type">Code:</div>
<pre>Format                                   : MPEG-4
Format profile                           : QuickTime
Codec ID                                 : qt   2005.03 (qt  )
File size                                : 937 MiB
Duration                                 : 3 min 30 s
Overall bit rate                         : 37.4 Mb/s
Encoded date                             : UTC 2015-07-06 20:51:23
Tagged date                              : UTC 2015-07-06 20:52:06
Writing library                          : Apple QuickTime

Video
ID                                       : 2
Format                                   : AVC
Format/Info                              : Advanced Video Codec
Format profile                           : Main@L5
Format settings                          : 2 Ref Frames
Format settings, CABAC                   : No
Format settings, Reference frames        : 2 frames
Format settings, GOP                     : M=2, N=24
Codec ID                                 : avc1
Codec ID/Info                            : Advanced Video Coding
Duration                                 : 3 min 30 s
Bit rate                                 : 35.8 Mb/s
Width                                    : 1 918 pixels
Height                                   : 800 pixels
Display aspect ratio                     : 2.40:1
Frame rate mode                          : Constant
Frame rate                               : 23.976 (23976/1000) FPS
Color space                              : YUV
Chroma subsampling                       : 4:2:0
Bit depth                                : 8 bits
Scan type                                : Progressive
Bits/(Pixel*Frame)                       : 0.974
Stream size                              : 899 MiB (96%)
Language                                 : English
Encoded date                             : UTC 2015-07-06 20:50:54
Tagged date                              : UTC 2015-07-06 20:52:06
Color range                              : Limited
Color primaries                          : BT.709
Transfer characteristics                 : BT.709
Matrix coefficients                      : BT.709
Codec configuration box                  : avcC

Audio
ID                                       : 1
Format                                   : PCM
Format settings                          : Little / Signed
Codec ID                                 : sowt
Duration                                 : 3 min 30 s
Bit rate mode                            : Constant
Bit rate                                 : 1 536 kb/s
Channel(s)                               : 2 channels
Channel layout                           : L R
Sampling rate                            : 48.0 kHz
Bit depth                                : 16 bits
Stream size                              : 38.5 MiB (4%)
Language                                 : English
Encoded date                             : UTC 2015-07-06 20:50:54
Tagged date                              : UTC 2015-07-06 20:52:06</pre>
</div><div style="text-align: center">​</div></div>
</div><div style="text-align: center"><br>
<div class="bbCodeBlock bbCodeVfcHH HiddenContent">
<div class="attribution type">Hidden Content:</div>
<blockquote>You must reply before you can see the hidden data contained here.</blockquote>
</div></div>
<div class="messageTextEndMarker">&nbsp;</div>
</blockquote>
</article>]]></description>
                <author><![CDATA[fstambuk]]></author>
                </item>

                </channel></rss>